Coordinates
version=1
nRows=78
nColumns=6
inDegrees=yes

Units are S.I. units (second, meters, Newtons, ...)
If the header above contains a line with 'inDegrees', this indicates whether rotational values are in degrees (yes) or radians (no).

endheader
time	foot_tx	hip_flexion_r	knee_angle_r	ankle_angle_r	lumbar
     24.40000000	      0.27302166	     62.23629626	    -56.49072458	     -7.12059471	    -11.72122311
     24.41000000	      0.27302532	     62.34412956	    -56.48683753	     -7.11842708	    -11.81093215
     24.42000000	      0.27302196	     62.46741528	    -56.48274373	     -7.11605645	    -11.91274017
     24.43000000	      0.27301080	     62.60738758	    -56.47775803	     -7.11388153	    -12.02791786
     24.44000000	      0.27299347	     62.76469700	    -56.47150476	     -7.11206615	    -12.15705732
     24.45000000	      0.27297054	     62.93995380	    -56.46363975	     -7.11060713	    -12.30056877
     24.46000000	      0.27294275	     63.13371874	    -56.45392157	     -7.10942474	    -12.45867870
     24.47000000	      0.27291097	     63.34649078	    -56.44218949	     -7.10836612	    -12.63143337
     24.48000000	      0.27288292	     63.65252666	    -56.42736631	     -7.11286300	    -12.73026785
     24.49000000	      0.27284240	     63.90171858	    -56.41217434	     -7.11049050	    -12.93609198
     24.50000000	      0.27280888	     64.23143546	    -56.39328805	     -7.11279212	    -13.08424634
     24.51000000	      0.27277118	     64.51989794	    -56.37503897	     -7.10873503	    -13.32121221
     24.52000000	      0.27273958	     64.92205719	    -56.35424558	     -7.11006749	    -13.46247427
     24.53000000	      0.27270834	     65.31160331	    -56.33345658	     -7.10693045	    -13.66021615
     24.54000000	      0.27267471	     65.72823088	    -56.31472691	     -7.10027552	    -13.86817149
     24.55000000	      0.27264592	     66.17640352	    -56.29432906	     -7.09265508	    -14.08275099
     24.56000000	      0.27262473	     66.65623960	    -56.27339898	     -7.08359922	    -14.30475389
     24.57000000	      0.27259987	     67.16628296	    -56.25439720	     -7.07058454	    -14.53838507
     24.58000000	      0.27258044	     67.70931457	    -56.23572080	     -7.05521616	    -14.78106168
     24.59000000	      0.27256620	     68.28588103	    -56.21517897	     -7.03841854	    -15.03417283
     24.60000000	      0.27254864	     68.90254079	    -56.19610654	     -7.01785383	    -15.29097079
     24.61000000	      0.27252756	     69.56019665	    -56.17948162	     -6.99266050	    -15.55041949
     24.62000000	      0.27251151	     70.26699364	    -56.15951827	     -6.96658847	    -15.80308500
     24.63000000	      0.27248536	     71.02496193	    -56.14089760	     -6.93541412	    -16.04650727
     24.64000000	      0.27245935	     71.84518720	    -56.12050665	     -6.90149397	    -16.26469288
     24.65000000	      0.27242685	     72.72788916	    -56.09941495	     -6.86279943	    -16.45549687
     24.66000000	      0.27237735	     73.68813593	    -56.08097796	     -6.81653286	    -16.59736701
     24.67000000	      0.27231836	     74.72455864	    -56.06438888	     -6.76218096	    -16.68667326
     24.68000000	      0.27223837	     75.84742678	    -56.04970471	     -6.69815752	    -16.70668247
     24.69000000	      0.27216097	     77.05514047	    -56.03432188	     -6.62593827	    -16.65020968
     24.70000000	      0.27206457	     78.34934868	    -56.02131961	     -6.54063941	    -16.51013968
     24.71000000	      0.27195632	     79.72056846	    -56.01046774	     -6.44061460	    -16.28929848
     24.72000000	      0.27184038	     81.16816216	    -56.00174974	     -6.32469569	    -15.97916703
     24.73000000	      0.27171971	     82.67238205	    -55.99502981	     -6.19026207	    -15.59559480
     24.74000000	      0.27159909	     84.22132749	    -55.99050269	     -6.03576455	    -15.14377576
     24.75000000	      0.27148363	     85.79697946	    -55.99038045	     -5.85825347	    -14.63714797
     24.76000000	      0.27137723	     87.37894529	    -55.99500994	     -5.65633248	    -14.09255424
     24.77000000	      0.27128965	     88.94842694	    -56.00650479	     -5.42850223	    -13.52512791
     24.78000000	      0.27122334	     90.48496309	    -56.02836070	     -5.17246055	    -12.95338904
     24.79000000	      0.27118954	     91.97758257	    -56.06161398	     -4.88911561	    -12.38393734
     24.80000000	      0.27119006	     93.40712134	    -56.11361283	     -4.57532230	    -11.83540277
     24.81000000	      0.27123163	     94.76020092	    -56.18749534	     -4.23147908	    -11.31921731
     24.82000000	      0.27132112	     96.03203676	    -56.28746882	     -3.85829874	    -10.83664248
     24.83000000	      0.27145838	     97.21041293	    -56.42040000	     -3.45456704	    -10.39911637
     24.84000000	      0.27164908	     98.28732852	    -56.59298630	     -3.02000394	    -10.01347795
     24.85000000	      0.27189177	     99.26280907	    -56.80919357	     -2.55557739	     -9.67573240
     24.86000000	      0.27218658	    100.12948967	    -57.07527048	     -2.06088149	     -9.39238486
     24.87000000	      0.27253201	    100.88683048	    -57.39443996	     -1.53687886	     -9.16058519
     24.88000000	      0.27292489	    101.53361066	    -57.76873120	     -0.98478497	     -8.97867596
     24.89000000	      0.27336306	    102.07159308	    -58.19651088	     -0.40716686	     -8.84063572
     24.90000000	      0.27383654	    102.49201871	    -58.68137409	      0.19751068	     -8.75434704
     24.91000000	      0.27434655	    102.80546582	    -59.21262277	      0.82246634	     -8.70228278
     24.92000000	      0.27488496	    102.98960146	    -59.78912030	      1.46820222	     -8.71048673
     24.93000000	      0.27544356	    103.11482063	    -60.39197365	      2.12338357	     -8.68394055
     24.94000000	      0.27601764	    103.10687591	    -61.02174399	      2.79222071	     -8.71735589
     24.95000000	      0.27660859	    103.00849617	    -61.65991294	      3.46428682	     -8.75246994
     24.96000000	      0.27720267	    102.81738146	    -62.29610375	      4.13688118	     -8.79247852
     24.97000000	      0.27779779	    102.53523244	    -62.91686770	      4.80424390	     -8.83559412
     24.98000000	      0.27838733	    102.17402686	    -63.50977825	      5.46125881	     -8.86637272
     24.99000000	      0.27897406	    101.72982011	    -64.06049915	      6.10180542	     -8.89348266
     25.00000000	      0.27954037	    101.21783549	    -64.56312598	      6.72411009	     -8.89930591
     25.01000000	      0.28009403	    100.63138571	    -65.00267472	      7.32111304	     -8.89638369
     25.02000000	      0.28062815	     99.97440612	    -65.37292024	      7.89029282	     -8.88313913
     25.03000000	      0.28114089	     99.25133382	    -65.66666311	      8.42804613	     -8.85769641
     25.04000000	      0.28163050	     98.46243405	    -65.87886063	      8.93183458	     -8.82339659
     25.05000000	      0.28209621	     97.60931862	    -66.00592910	      9.39955310	     -8.78160566
     25.06000000	      0.28253777	     96.69239495	    -66.04588354	      9.82979859	     -8.73494923
     25.07000000	      0.28295565	     95.71178770	    -65.99819154	     10.22175732	     -8.68596877
     25.08000000	      0.28335099	     94.66994762	    -65.86351595	     10.57506002	     -8.63405909
     25.09000000	      0.28372567	     93.56673594	    -65.64327371	     10.88967596	     -8.58157718
     25.10000000	      0.28407923	     92.40385324	    -65.34142740	     11.16728097	     -8.52848172
     25.11000000	      0.28441519	     91.18031780	    -64.96029907	     11.40818992	     -8.47799845
     25.12000000	      0.28473613	     89.90355688	    -64.50358012	     11.61319687	     -8.42252420
     25.13000000	      0.28504283	     88.57018565	    -63.97607744	     11.78467637	     -8.36866779
     25.14000000	      0.28533554	     87.18363544	    -63.38214752	     11.92427967	     -8.31406068
     25.15000000	      0.28561481	     85.74627701	    -62.72597515	     12.03374194	     -8.25793555
     25.16000000	      0.28588230	     84.25896190	    -62.01163928	     12.11473072	     -8.20139990
     25.17000000	      0.28613671	     82.72300090	    -61.24311326	     12.16925066	     -8.14508471
